<svg width="100%" height="100%" viewBox="0 0 233 44" style="display:block;" fill="currentColor" xmlns="http://www.w3.org/2000/svg">
<path d="M0 0V25.5999C0 38.4001 5.72614 44 20.5187 44H44.1051V36.5334H20.7914C10.1571 36.5334 6.33967 33.5999 6.33967 25.3334V17.8666H44.1051V10.6667H6.33967V0H0ZM47.1726 44H53.9214V43.1335C53.9214 36 58.3523 33.2666 69.8046 33.2666C81.2568 33.2666 85.6877 36 85.6877 43.1335V44H92.0956V29.0668C92.0956 16.2667 86.3694 10.6667 71.5768 10.6667H47.1044V17.8666H71.3041C82.2793 17.8666 85.7561 20.6668 85.7561 29.3334V33.5333L87.7327 32.8667C84.597 28.3334 78.871 26.2666 69.6682 26.2666C54.6711 26.2666 47.1726 31.8 47.1726 43.0668V44ZM143.495 44H149.834V29.3334C149.834 20.6668 153.31 17.8666 164.422 17.8666H185.69V10.6667H164.15C149.221 10.6667 143.495 16.2667 143.495 29.0668V44ZM95.1632 44H101.912V43.1335C101.912 36 106.343 33.2666 117.795 33.2666C129.248 33.2666 133.678 36 133.678 43.1335V44H140.086V29.0668C140.086 16.2667 134.36 10.6667 119.567 10.6667H94.4133V17.8666H119.295C130.27 17.8666 133.747 20.6668 133.747 29.3334V33.5333L135.724 32.8667C132.588 28.3334 126.862 26.2666 117.659 26.2666C102.662 26.2666 95.1632 31.8 95.1632 43.0668V44ZM188.076 44H194.824V43.1335C194.824 36 199.257 33.2666 210.708 33.2666C222.162 33.2666 226.591 36 226.591 43.1335V44H233V29.0668C233 16.2667 227.273 10.6667 212.481 10.6667H188.691V17.8666H212.208C223.183 17.8666 226.66 20.6668 226.66 29.3334V33.5333L228.638 32.8667C225.501 28.3334 219.776 26.2666 210.571 26.2666C195.575 26.2666 188.076 31.8 188.076 43.0668V44Z"></path>
</svg>
